<mxfile host="www.draw.io" modified="2020-03-09T15:01:39.412Z" agent="Mozilla/5.0 (Windows NT 10.0; WOW64) AppleWebKit/537.36 (KHTML, like Gecko) Chrome/80.0.3987.132 Safari/537.36" etag="2GFrNul5xa_9QpLlGlrp" version="12.8.1" type="github" pages="3">
  <diagram id="C5RBs43oDa-KdzZeNtuy" name="系统架构图">
    <mxGraphModel dx="1038" dy="580" grid="1" gridSize="10" guides="1" tooltips="1" connect="1" arrows="1" fold="1" page="1" pageScale="1" pageWidth="827" pageHeight="1169" math="0" shadow="0">
      <root>
        <mxCell id="WIyWlLk6GJQsqaUBKTNV-0" />
        <mxCell id="WIyWlLk6GJQsqaUBKTNV-1" parent="WIyWlLk6GJQsqaUBKTNV-0" />
        <mxCell id="_SYjHrnVtphl9Z6M1iAs-2" value="" style="rounded=0;whiteSpace=wrap;html=1;dashed=1;" vertex="1" parent="WIyWlLk6GJQsqaUBKTNV-1">
          <mxGeometry x="294" y="450" width="336" height="60" as="geometry" />
        </mxCell>
        <mxCell id="_SYjHrnVtphl9Z6M1iAs-28" style="edgeStyle=orthogonalEdgeStyle;rounded=0;orthogonalLoop=1;jettySize=auto;html=1;exitX=0.5;exitY=1;exitDx=0;exitDy=0;entryX=0.5;entryY=0;entryDx=0;entryDy=0;" edge="1" parent="WIyWlLk6GJQsqaUBKTNV-1" source="_SYjHrnVtphl9Z6M1iAs-3" target="_SYjHrnVtphl9Z6M1iAs-10">
          <mxGeometry relative="1" as="geometry" />
        </mxCell>
        <mxCell id="_SYjHrnVtphl9Z6M1iAs-3" value="发布问题" style="rounded=0;whiteSpace=wrap;html=1;" vertex="1" parent="WIyWlLk6GJQsqaUBKTNV-1">
          <mxGeometry x="310" y="465" width="70" height="30" as="geometry" />
        </mxCell>
        <mxCell id="_SYjHrnVtphl9Z6M1iAs-29" style="edgeStyle=orthogonalEdgeStyle;rounded=0;orthogonalLoop=1;jettySize=auto;html=1;exitX=0.5;exitY=1;exitDx=0;exitDy=0;entryX=0.5;entryY=0;entryDx=0;entryDy=0;" edge="1" parent="WIyWlLk6GJQsqaUBKTNV-1" source="_SYjHrnVtphl9Z6M1iAs-4" target="_SYjHrnVtphl9Z6M1iAs-10">
          <mxGeometry relative="1" as="geometry" />
        </mxCell>
        <mxCell id="_SYjHrnVtphl9Z6M1iAs-4" value="发布回答" style="rounded=0;whiteSpace=wrap;html=1;" vertex="1" parent="WIyWlLk6GJQsqaUBKTNV-1">
          <mxGeometry x="390" y="465" width="70" height="30" as="geometry" />
        </mxCell>
        <mxCell id="_SYjHrnVtphl9Z6M1iAs-30" style="edgeStyle=orthogonalEdgeStyle;rounded=0;orthogonalLoop=1;jettySize=auto;html=1;exitX=0.5;exitY=1;exitDx=0;exitDy=0;entryX=0.5;entryY=0;entryDx=0;entryDy=0;" edge="1" parent="WIyWlLk6GJQsqaUBKTNV-1" source="_SYjHrnVtphl9Z6M1iAs-6" target="_SYjHrnVtphl9Z6M1iAs-10">
          <mxGeometry relative="1" as="geometry" />
        </mxCell>
        <mxCell id="_SYjHrnVtphl9Z6M1iAs-6" value="问题列表" style="rounded=0;whiteSpace=wrap;html=1;" vertex="1" parent="WIyWlLk6GJQsqaUBKTNV-1">
          <mxGeometry x="470" y="465" width="70" height="30" as="geometry" />
        </mxCell>
        <mxCell id="_SYjHrnVtphl9Z6M1iAs-31" style="edgeStyle=orthogonalEdgeStyle;rounded=0;orthogonalLoop=1;jettySize=auto;html=1;exitX=0.5;exitY=1;exitDx=0;exitDy=0;entryX=0.5;entryY=0;entryDx=0;entryDy=0;" edge="1" parent="WIyWlLk6GJQsqaUBKTNV-1" source="_SYjHrnVtphl9Z6M1iAs-8" target="_SYjHrnVtphl9Z6M1iAs-10">
          <mxGeometry relative="1" as="geometry">
            <mxPoint x="470" y="560" as="targetPoint" />
          </mxGeometry>
        </mxCell>
        <mxCell id="_SYjHrnVtphl9Z6M1iAs-8" value="答案列表" style="rounded=0;whiteSpace=wrap;html=1;" vertex="1" parent="WIyWlLk6GJQsqaUBKTNV-1">
          <mxGeometry x="550" y="465" width="70" height="30" as="geometry" />
        </mxCell>
        <mxCell id="_SYjHrnVtphl9Z6M1iAs-13" value="" style="edgeStyle=orthogonalEdgeStyle;rounded=0;orthogonalLoop=1;jettySize=auto;html=1;" edge="1" parent="WIyWlLk6GJQsqaUBKTNV-1" source="_SYjHrnVtphl9Z6M1iAs-10" target="_SYjHrnVtphl9Z6M1iAs-12">
          <mxGeometry relative="1" as="geometry" />
        </mxCell>
        <mxCell id="_SYjHrnVtphl9Z6M1iAs-36" value="存储" style="text;html=1;align=center;verticalAlign=middle;resizable=0;points=[];labelBackgroundColor=#ffffff;" vertex="1" connectable="0" parent="_SYjHrnVtphl9Z6M1iAs-13">
          <mxGeometry x="0.1789" y="-4" relative="1" as="geometry">
            <mxPoint as="offset" />
          </mxGeometry>
        </mxCell>
        <mxCell id="_SYjHrnVtphl9Z6M1iAs-27" style="edgeStyle=orthogonalEdgeStyle;rounded=0;orthogonalLoop=1;jettySize=auto;html=1;" edge="1" parent="WIyWlLk6GJQsqaUBKTNV-1" source="_SYjHrnVtphl9Z6M1iAs-10" target="_SYjHrnVtphl9Z6M1iAs-21">
          <mxGeometry relative="1" as="geometry" />
        </mxCell>
        <mxCell id="_SYjHrnVtphl9Z6M1iAs-33" style="edgeStyle=orthogonalEdgeStyle;rounded=0;orthogonalLoop=1;jettySize=auto;html=1;" edge="1" parent="WIyWlLk6GJQsqaUBKTNV-1" source="_SYjHrnVtphl9Z6M1iAs-10" target="_SYjHrnVtphl9Z6M1iAs-32">
          <mxGeometry relative="1" as="geometry" />
        </mxCell>
        <mxCell id="_SYjHrnVtphl9Z6M1iAs-37" value="缓存" style="text;html=1;align=center;verticalAlign=middle;resizable=0;points=[];labelBackgroundColor=#ffffff;" vertex="1" connectable="0" parent="_SYjHrnVtphl9Z6M1iAs-33">
          <mxGeometry x="-0.2545" y="4" relative="1" as="geometry">
            <mxPoint as="offset" />
          </mxGeometry>
        </mxCell>
        <mxCell id="_SYjHrnVtphl9Z6M1iAs-10" value="question服务" style="rounded=0;whiteSpace=wrap;html=1;" vertex="1" parent="WIyWlLk6GJQsqaUBKTNV-1">
          <mxGeometry x="294" y="555" width="336" height="75" as="geometry" />
        </mxCell>
        <mxCell id="_SYjHrnVtphl9Z6M1iAs-12" value="MYSQL" style="shape=cylinder;whiteSpace=wrap;html=1;boundedLbl=1;backgroundOutline=1;" vertex="1" parent="WIyWlLk6GJQsqaUBKTNV-1">
          <mxGeometry x="673" y="605" width="57" height="60" as="geometry" />
        </mxCell>
        <mxCell id="_SYjHrnVtphl9Z6M1iAs-20" value="" style="edgeStyle=orthogonalEdgeStyle;rounded=0;orthogonalLoop=1;jettySize=auto;html=1;" edge="1" parent="WIyWlLk6GJQsqaUBKTNV-1" source="_SYjHrnVtphl9Z6M1iAs-17" target="_SYjHrnVtphl9Z6M1iAs-19">
          <mxGeometry relative="1" as="geometry" />
        </mxCell>
        <mxCell id="_SYjHrnVtphl9Z6M1iAs-17" value="question_es_worker" style="rounded=0;whiteSpace=wrap;html=1;" vertex="1" parent="WIyWlLk6GJQsqaUBKTNV-1">
          <mxGeometry x="470" y="687.5" width="123" height="35" as="geometry" />
        </mxCell>
        <mxCell id="_SYjHrnVtphl9Z6M1iAs-19" value="elastic search" style="shape=document;whiteSpace=wrap;html=1;boundedLbl=1;" vertex="1" parent="WIyWlLk6GJQsqaUBKTNV-1">
          <mxGeometry x="633" y="680" width="100" height="50" as="geometry" />
        </mxCell>
        <mxCell id="_SYjHrnVtphl9Z6M1iAs-23" value="" style="edgeStyle=orthogonalEdgeStyle;rounded=0;orthogonalLoop=1;jettySize=auto;html=1;" edge="1" parent="WIyWlLk6GJQsqaUBKTNV-1" source="_SYjHrnVtphl9Z6M1iAs-21">
          <mxGeometry relative="1" as="geometry">
            <mxPoint x="470" y="705" as="targetPoint" />
          </mxGeometry>
        </mxCell>
        <mxCell id="_SYjHrnVtphl9Z6M1iAs-21" value="kafka" style="shape=tapeData;whiteSpace=wrap;html=1;perimeter=ellipsePerimeter;" vertex="1" parent="WIyWlLk6GJQsqaUBKTNV-1">
          <mxGeometry x="310" y="665" width="80" height="80" as="geometry" />
        </mxCell>
        <mxCell id="_SYjHrnVtphl9Z6M1iAs-32" value="Redis" style="shape=cylinder;whiteSpace=wrap;html=1;boundedLbl=1;backgroundOutline=1;" vertex="1" parent="WIyWlLk6GJQsqaUBKTNV-1">
          <mxGeometry x="673" y="510" width="60" height="60" as="geometry" />
        </mxCell>
      </root>
    </mxGraphModel>
  </diagram>
  <diagram id="lIi11sGubD4G1bbWOlPQ" name="发布问题">
    <mxGraphModel dx="1038" dy="580" grid="1" gridSize="10" guides="1" tooltips="1" connect="1" arrows="1" fold="1" page="1" pageScale="1" pageWidth="827" pageHeight="1169" math="0" shadow="0">
      <root>
        <mxCell id="_af2-GYS53G4K8l4p3T7-0" />
        <mxCell id="_af2-GYS53G4K8l4p3T7-1" parent="_af2-GYS53G4K8l4p3T7-0" />
        <mxCell id="_af2-GYS53G4K8l4p3T7-21" value="" style="edgeStyle=orthogonalEdgeStyle;rounded=0;orthogonalLoop=1;jettySize=auto;html=1;startArrow=none;startFill=0;endArrow=classic;endFill=1;entryX=0.06;entryY=0.048;entryDx=0;entryDy=0;entryPerimeter=0;" edge="1" parent="_af2-GYS53G4K8l4p3T7-1" target="_af2-GYS53G4K8l4p3T7-13">
          <mxGeometry relative="1" as="geometry">
            <mxPoint x="430" y="225" as="sourcePoint" />
            <mxPoint x="481.20000000000005" y="224.36" as="targetPoint" />
            <Array as="points">
              <mxPoint x="320" y="225" />
              <mxPoint x="320" y="224" />
            </Array>
          </mxGeometry>
        </mxCell>
        <mxCell id="_af2-GYS53G4K8l4p3T7-22" value="获取推荐的话题id" style="text;html=1;align=center;verticalAlign=middle;resizable=0;points=[];labelBackgroundColor=#ffffff;" vertex="1" connectable="0" parent="_af2-GYS53G4K8l4p3T7-21">
          <mxGeometry x="-0.6888" y="1" relative="1" as="geometry">
            <mxPoint as="offset" />
          </mxGeometry>
        </mxCell>
        <mxCell id="_af2-GYS53G4K8l4p3T7-5" value="" style="html=1;points=[];perimeter=orthogonalPerimeter;" vertex="1" parent="_af2-GYS53G4K8l4p3T7-1">
          <mxGeometry x="310" y="220" width="10" height="80" as="geometry" />
        </mxCell>
        <mxCell id="_af2-GYS53G4K8l4p3T7-7" value="" style="edgeStyle=orthogonalEdgeStyle;rounded=0;orthogonalLoop=1;jettySize=auto;html=1;dashed=1;endArrow=none;endFill=0;" edge="1" parent="_af2-GYS53G4K8l4p3T7-1" source="_af2-GYS53G4K8l4p3T7-6" target="_af2-GYS53G4K8l4p3T7-5">
          <mxGeometry relative="1" as="geometry" />
        </mxCell>
        <mxCell id="_af2-GYS53G4K8l4p3T7-6" value="topic_api" style="html=1;" vertex="1" parent="_af2-GYS53G4K8l4p3T7-1">
          <mxGeometry x="290" y="130" width="50" height="30" as="geometry" />
        </mxCell>
        <mxCell id="_af2-GYS53G4K8l4p3T7-15" value="" style="edgeStyle=orthogonalEdgeStyle;rounded=0;orthogonalLoop=1;jettySize=auto;html=1;dashed=1;endArrow=none;endFill=0;" edge="1" parent="_af2-GYS53G4K8l4p3T7-1" source="_af2-GYS53G4K8l4p3T7-9" target="_af2-GYS53G4K8l4p3T7-14">
          <mxGeometry relative="1" as="geometry" />
        </mxCell>
        <mxCell id="_af2-GYS53G4K8l4p3T7-9" value="Actor" style="shape=umlActor;verticalLabelPosition=bottom;labelBackgroundColor=#ffffff;verticalAlign=top;html=1;" vertex="1" parent="_af2-GYS53G4K8l4p3T7-1">
          <mxGeometry x="100" y="100" width="30" height="60" as="geometry" />
        </mxCell>
        <mxCell id="_af2-GYS53G4K8l4p3T7-10" value="topic服务" style="html=1;" vertex="1" parent="_af2-GYS53G4K8l4p3T7-1">
          <mxGeometry x="431" y="130" width="60" height="30" as="geometry" />
        </mxCell>
        <mxCell id="_af2-GYS53G4K8l4p3T7-13" value="" style="html=1;points=[];perimeter=orthogonalPerimeter;" vertex="1" parent="_af2-GYS53G4K8l4p3T7-1">
          <mxGeometry x="451" y="220" width="10" height="80" as="geometry" />
        </mxCell>
        <mxCell id="_af2-GYS53G4K8l4p3T7-17" value="" style="edgeStyle=orthogonalEdgeStyle;rounded=0;orthogonalLoop=1;jettySize=auto;html=1;endArrow=classic;endFill=1;startArrow=none;startFill=0;exitX=1.12;exitY=0.038;exitDx=0;exitDy=0;exitPerimeter=0;" edge="1" parent="_af2-GYS53G4K8l4p3T7-1" source="_af2-GYS53G4K8l4p3T7-14">
          <mxGeometry relative="1" as="geometry">
            <mxPoint x="115" y="261" as="sourcePoint" />
            <mxPoint x="308" y="223" as="targetPoint" />
            <Array as="points">
              <mxPoint x="308" y="223" />
            </Array>
          </mxGeometry>
        </mxCell>
        <mxCell id="_af2-GYS53G4K8l4p3T7-18" value="获取问题所属话题id" style="text;html=1;align=center;verticalAlign=middle;resizable=0;points=[];labelBackgroundColor=#ffffff;" vertex="1" connectable="0" parent="_af2-GYS53G4K8l4p3T7-17">
          <mxGeometry x="-0.2762" y="2" relative="1" as="geometry">
            <mxPoint as="offset" />
          </mxGeometry>
        </mxCell>
        <mxCell id="_af2-GYS53G4K8l4p3T7-14" value="" style="html=1;points=[];perimeter=orthogonalPerimeter;" vertex="1" parent="_af2-GYS53G4K8l4p3T7-1">
          <mxGeometry x="110" y="220" width="10" height="80" as="geometry" />
        </mxCell>
        <mxCell id="_af2-GYS53G4K8l4p3T7-23" value="" style="edgeStyle=orthogonalEdgeStyle;rounded=0;orthogonalLoop=1;jettySize=auto;html=1;startArrow=classic;startFill=1;endArrow=none;endFill=0;entryX=0.04;entryY=0.758;entryDx=0;entryDy=0;entryPerimeter=0;" edge="1" parent="_af2-GYS53G4K8l4p3T7-1" target="_af2-GYS53G4K8l4p3T7-13">
          <mxGeometry relative="1" as="geometry">
            <mxPoint x="320" y="280" as="sourcePoint" />
            <mxPoint x="470" y="280" as="targetPoint" />
            <Array as="points">
              <mxPoint x="333" y="280" />
            </Array>
          </mxGeometry>
        </mxCell>
        <mxCell id="_af2-GYS53G4K8l4p3T7-29" value="返回推荐的话题id" style="text;html=1;align=center;verticalAlign=middle;resizable=0;points=[];labelBackgroundColor=#ffffff;" vertex="1" connectable="0" parent="_af2-GYS53G4K8l4p3T7-23">
          <mxGeometry x="0.1944" y="2" relative="1" as="geometry">
            <mxPoint as="offset" />
          </mxGeometry>
        </mxCell>
        <mxCell id="_af2-GYS53G4K8l4p3T7-30" value="" style="edgeStyle=orthogonalEdgeStyle;rounded=0;orthogonalLoop=1;jettySize=auto;html=1;startArrow=classic;startFill=1;endArrow=none;endFill=0;entryX=0;entryY=0.758;entryDx=0;entryDy=0;entryPerimeter=0;exitX=1;exitY=0.758;exitDx=0;exitDy=0;exitPerimeter=0;" edge="1" parent="_af2-GYS53G4K8l4p3T7-1" source="_af2-GYS53G4K8l4p3T7-14" target="_af2-GYS53G4K8l4p3T7-5">
          <mxGeometry relative="1" as="geometry">
            <mxPoint x="130" y="280" as="sourcePoint" />
            <mxPoint x="290.4000000000001" y="280.64" as="targetPoint" />
            <Array as="points" />
          </mxGeometry>
        </mxCell>
        <mxCell id="_af2-GYS53G4K8l4p3T7-31" value="返回推荐的话题id" style="text;html=1;align=center;verticalAlign=middle;resizable=0;points=[];labelBackgroundColor=#ffffff;" vertex="1" connectable="0" parent="_af2-GYS53G4K8l4p3T7-30">
          <mxGeometry x="0.1944" y="2" relative="1" as="geometry">
            <mxPoint as="offset" />
          </mxGeometry>
        </mxCell>
        <mxCell id="_af2-GYS53G4K8l4p3T7-37" value="" style="edgeStyle=orthogonalEdgeStyle;rounded=0;orthogonalLoop=1;jettySize=auto;html=1;dashed=1;endArrow=none;endFill=0;" edge="1" parent="_af2-GYS53G4K8l4p3T7-1">
          <mxGeometry relative="1" as="geometry">
            <mxPoint x="455.5" y="160" as="sourcePoint" />
            <mxPoint x="455.5" y="220" as="targetPoint" />
          </mxGeometry>
        </mxCell>
        <mxCell id="_af2-GYS53G4K8l4p3T7-38" value="question_api" style="html=1;" vertex="1" parent="_af2-GYS53G4K8l4p3T7-1">
          <mxGeometry x="533" y="130" width="80" height="30" as="geometry" />
        </mxCell>
        <mxCell id="_af2-GYS53G4K8l4p3T7-39" value="" style="edgeStyle=orthogonalEdgeStyle;rounded=0;orthogonalLoop=1;jettySize=auto;html=1;dashed=1;endArrow=none;endFill=0;exitX=0.5;exitY=1;exitDx=0;exitDy=0;" edge="1" parent="_af2-GYS53G4K8l4p3T7-1" source="_af2-GYS53G4K8l4p3T7-38" target="_af2-GYS53G4K8l4p3T7-40">
          <mxGeometry relative="1" as="geometry">
            <mxPoint x="587.5" y="160" as="sourcePoint" />
            <mxPoint x="573" y="220" as="targetPoint" />
            <Array as="points" />
          </mxGeometry>
        </mxCell>
        <mxCell id="_af2-GYS53G4K8l4p3T7-40" value="" style="html=1;points=[];perimeter=orthogonalPerimeter;" vertex="1" parent="_af2-GYS53G4K8l4p3T7-1">
          <mxGeometry x="568" y="320" width="10" height="80" as="geometry" />
        </mxCell>
        <mxCell id="_af2-GYS53G4K8l4p3T7-41" value="" style="html=1;points=[];perimeter=orthogonalPerimeter;" vertex="1" parent="_af2-GYS53G4K8l4p3T7-1">
          <mxGeometry x="110" y="320" width="10" height="80" as="geometry" />
        </mxCell>
        <mxCell id="_af2-GYS53G4K8l4p3T7-44" value="" style="edgeStyle=orthogonalEdgeStyle;rounded=0;orthogonalLoop=1;jettySize=auto;html=1;dashed=1;endArrow=none;endFill=0;" edge="1" parent="_af2-GYS53G4K8l4p3T7-1">
          <mxGeometry relative="1" as="geometry">
            <mxPoint x="115" y="300" as="sourcePoint" />
            <mxPoint x="115" y="300" as="targetPoint" />
            <Array as="points">
              <mxPoint x="114.5" y="320" />
              <mxPoint x="114.5" y="320" />
            </Array>
          </mxGeometry>
        </mxCell>
        <mxCell id="_af2-GYS53G4K8l4p3T7-47" value="" style="endArrow=classic;html=1;" edge="1" parent="_af2-GYS53G4K8l4p3T7-1" source="_af2-GYS53G4K8l4p3T7-41">
          <mxGeometry width="50" height="50" relative="1" as="geometry">
            <mxPoint x="210" y="400" as="sourcePoint" />
            <mxPoint x="570" y="350" as="targetPoint" />
          </mxGeometry>
        </mxCell>
        <mxCell id="_af2-GYS53G4K8l4p3T7-48" value="发布问题" style="text;html=1;align=center;verticalAlign=middle;resizable=0;points=[];labelBackgroundColor=#ffffff;" vertex="1" connectable="0" parent="_af2-GYS53G4K8l4p3T7-47">
          <mxGeometry x="-0.2187" y="4" relative="1" as="geometry">
            <mxPoint as="offset" />
          </mxGeometry>
        </mxCell>
        <mxCell id="_af2-GYS53G4K8l4p3T7-49" value="question服务" style="html=1;" vertex="1" parent="_af2-GYS53G4K8l4p3T7-1">
          <mxGeometry x="650" y="130" width="80" height="30" as="geometry" />
        </mxCell>
        <mxCell id="_af2-GYS53G4K8l4p3T7-50" value="" style="html=1;points=[];perimeter=orthogonalPerimeter;" vertex="1" parent="_af2-GYS53G4K8l4p3T7-1">
          <mxGeometry x="568" y="320" width="10" height="80" as="geometry" />
        </mxCell>
        <mxCell id="_af2-GYS53G4K8l4p3T7-51" value="" style="edgeStyle=orthogonalEdgeStyle;rounded=0;orthogonalLoop=1;jettySize=auto;html=1;dashed=1;endArrow=none;endFill=0;exitX=0.5;exitY=1;exitDx=0;exitDy=0;" edge="1" parent="_af2-GYS53G4K8l4p3T7-1">
          <mxGeometry relative="1" as="geometry">
            <mxPoint x="572.5" y="160" as="sourcePoint" />
            <mxPoint x="572.5" y="320" as="targetPoint" />
            <Array as="points" />
          </mxGeometry>
        </mxCell>
        <mxCell id="_af2-GYS53G4K8l4p3T7-52" value="" style="html=1;points=[];perimeter=orthogonalPerimeter;" vertex="1" parent="_af2-GYS53G4K8l4p3T7-1">
          <mxGeometry x="685" y="320" width="10" height="80" as="geometry" />
        </mxCell>
        <mxCell id="_af2-GYS53G4K8l4p3T7-53" value="" style="edgeStyle=orthogonalEdgeStyle;rounded=0;orthogonalLoop=1;jettySize=auto;html=1;dashed=1;endArrow=none;endFill=0;exitX=0.5;exitY=1;exitDx=0;exitDy=0;" edge="1" parent="_af2-GYS53G4K8l4p3T7-1">
          <mxGeometry relative="1" as="geometry">
            <mxPoint x="689.5" y="160" as="sourcePoint" />
            <mxPoint x="689.5" y="320" as="targetPoint" />
            <Array as="points" />
          </mxGeometry>
        </mxCell>
        <mxCell id="_af2-GYS53G4K8l4p3T7-54" value="" style="endArrow=classic;html=1;exitX=0.92;exitY=0.378;exitDx=0;exitDy=0;exitPerimeter=0;" edge="1" parent="_af2-GYS53G4K8l4p3T7-1" source="_af2-GYS53G4K8l4p3T7-50" target="_af2-GYS53G4K8l4p3T7-52">
          <mxGeometry width="50" height="50" relative="1" as="geometry">
            <mxPoint x="600" y="370" as="sourcePoint" />
            <mxPoint x="670" y="380" as="targetPoint" />
          </mxGeometry>
        </mxCell>
        <mxCell id="_af2-GYS53G4K8l4p3T7-55" value="发布问题&amp;nbsp;" style="text;html=1;align=center;verticalAlign=middle;resizable=0;points=[];labelBackgroundColor=#ffffff;" vertex="1" connectable="0" parent="_af2-GYS53G4K8l4p3T7-54">
          <mxGeometry x="-0.2356" relative="1" as="geometry">
            <mxPoint as="offset" />
          </mxGeometry>
        </mxCell>
        <mxCell id="_af2-GYS53G4K8l4p3T7-56" value="" style="endArrow=classic;html=1;" edge="1" parent="_af2-GYS53G4K8l4p3T7-1" source="_af2-GYS53G4K8l4p3T7-52">
          <mxGeometry width="50" height="50" relative="1" as="geometry">
            <mxPoint x="670" y="410" as="sourcePoint" />
            <mxPoint x="580" y="390" as="targetPoint" />
          </mxGeometry>
        </mxCell>
        <mxCell id="_af2-GYS53G4K8l4p3T7-58" value="返回结果" style="text;html=1;align=center;verticalAlign=middle;resizable=0;points=[];labelBackgroundColor=#ffffff;" vertex="1" connectable="0" parent="_af2-GYS53G4K8l4p3T7-56">
          <mxGeometry x="-0.1505" y="1" relative="1" as="geometry">
            <mxPoint as="offset" />
          </mxGeometry>
        </mxCell>
        <mxCell id="_af2-GYS53G4K8l4p3T7-59" value="" style="endArrow=classic;html=1;exitX=-0.04;exitY=0.868;exitDx=0;exitDy=0;exitPerimeter=0;entryX=1.2;entryY=0.868;entryDx=0;entryDy=0;entryPerimeter=0;" edge="1" parent="_af2-GYS53G4K8l4p3T7-1" source="_af2-GYS53G4K8l4p3T7-50" target="_af2-GYS53G4K8l4p3T7-41">
          <mxGeometry width="50" height="50" relative="1" as="geometry">
            <mxPoint x="560" y="390" as="sourcePoint" />
            <mxPoint x="360" y="410" as="targetPoint" />
          </mxGeometry>
        </mxCell>
        <mxCell id="_af2-GYS53G4K8l4p3T7-60" value="返回question_id" style="text;html=1;align=center;verticalAlign=middle;resizable=0;points=[];labelBackgroundColor=#ffffff;" vertex="1" connectable="0" parent="_af2-GYS53G4K8l4p3T7-59">
          <mxGeometry x="0.2352" y="2" relative="1" as="geometry">
            <mxPoint as="offset" />
          </mxGeometry>
        </mxCell>
        <mxCell id="_af2-GYS53G4K8l4p3T7-61" value="kafka" style="html=1;" vertex="1" parent="_af2-GYS53G4K8l4p3T7-1">
          <mxGeometry x="760" y="130" width="50" height="30" as="geometry" />
        </mxCell>
        <mxCell id="_af2-GYS53G4K8l4p3T7-62" value="ES" style="html=1;" vertex="1" parent="_af2-GYS53G4K8l4p3T7-1">
          <mxGeometry x="840" y="130" width="50" height="30" as="geometry" />
        </mxCell>
        <mxCell id="_af2-GYS53G4K8l4p3T7-64" value="" style="html=1;points=[];perimeter=orthogonalPerimeter;" vertex="1" parent="_af2-GYS53G4K8l4p3T7-1">
          <mxGeometry x="685" y="320" width="10" height="80" as="geometry" />
        </mxCell>
        <mxCell id="_af2-GYS53G4K8l4p3T7-65" value="" style="edgeStyle=orthogonalEdgeStyle;rounded=0;orthogonalLoop=1;jettySize=auto;html=1;dashed=1;endArrow=none;endFill=0;exitX=0.5;exitY=1;exitDx=0;exitDy=0;" edge="1" parent="_af2-GYS53G4K8l4p3T7-1">
          <mxGeometry relative="1" as="geometry">
            <mxPoint x="784.5" y="160" as="sourcePoint" />
            <mxPoint x="784.5" y="320" as="targetPoint" />
            <Array as="points" />
          </mxGeometry>
        </mxCell>
        <mxCell id="_af2-GYS53G4K8l4p3T7-66" value="" style="html=1;points=[];perimeter=orthogonalPerimeter;" vertex="1" parent="_af2-GYS53G4K8l4p3T7-1">
          <mxGeometry x="780" y="320" width="10" height="80" as="geometry" />
        </mxCell>
        <mxCell id="_af2-GYS53G4K8l4p3T7-67" value="" style="edgeStyle=orthogonalEdgeStyle;rounded=0;orthogonalLoop=1;jettySize=auto;html=1;dashed=1;endArrow=none;endFill=0;exitX=0.5;exitY=1;exitDx=0;exitDy=0;" edge="1" parent="_af2-GYS53G4K8l4p3T7-1">
          <mxGeometry relative="1" as="geometry">
            <mxPoint x="864.5" y="160" as="sourcePoint" />
            <mxPoint x="864.5" y="320" as="targetPoint" />
            <Array as="points" />
          </mxGeometry>
        </mxCell>
        <mxCell id="_af2-GYS53G4K8l4p3T7-68" value="" style="html=1;points=[];perimeter=orthogonalPerimeter;" vertex="1" parent="_af2-GYS53G4K8l4p3T7-1">
          <mxGeometry x="860" y="320" width="10" height="80" as="geometry" />
        </mxCell>
        <mxCell id="_af2-GYS53G4K8l4p3T7-69" value="" style="endArrow=classic;html=1;entryX=-0.04;entryY=0.358;entryDx=0;entryDy=0;entryPerimeter=0;" edge="1" parent="_af2-GYS53G4K8l4p3T7-1" target="_af2-GYS53G4K8l4p3T7-66">
          <mxGeometry width="50" height="50" relative="1" as="geometry">
            <mxPoint x="700" y="349" as="sourcePoint" />
            <mxPoint x="760" y="340" as="targetPoint" />
          </mxGeometry>
        </mxCell>
        <mxCell id="_af2-GYS53G4K8l4p3T7-70" value="异步发送" style="text;html=1;align=center;verticalAlign=middle;resizable=0;points=[];labelBackgroundColor=#ffffff;" vertex="1" connectable="0" parent="_af2-GYS53G4K8l4p3T7-69">
          <mxGeometry x="-0.3871" y="-1" relative="1" as="geometry">
            <mxPoint as="offset" />
          </mxGeometry>
        </mxCell>
        <mxCell id="_af2-GYS53G4K8l4p3T7-72" value="插入" style="endArrow=classic;html=1;entryX=0.04;entryY=0.388;entryDx=0;entryDy=0;entryPerimeter=0;" edge="1" parent="_af2-GYS53G4K8l4p3T7-1" target="_af2-GYS53G4K8l4p3T7-68">
          <mxGeometry width="50" height="50" relative="1" as="geometry">
            <mxPoint x="790" y="350" as="sourcePoint" />
            <mxPoint x="840" y="300" as="targetPoint" />
          </mxGeometry>
        </mxCell>
        <mxCell id="_af2-GYS53G4K8l4p3T7-73" value="返回" style="endArrow=classic;html=1;" edge="1" parent="_af2-GYS53G4K8l4p3T7-1">
          <mxGeometry width="50" height="50" relative="1" as="geometry">
            <mxPoint x="860" y="380" as="sourcePoint" />
            <mxPoint x="790" y="380" as="targetPoint" />
          </mxGeometry>
        </mxCell>
        <mxCell id="_af2-GYS53G4K8l4p3T7-74" value="返回" style="endArrow=classic;html=1;exitX=-0.2;exitY=0.798;exitDx=0;exitDy=0;exitPerimeter=0;entryX=1.14;entryY=0.808;entryDx=0;entryDy=0;entryPerimeter=0;" edge="1" parent="_af2-GYS53G4K8l4p3T7-1" source="_af2-GYS53G4K8l4p3T7-66" target="_af2-GYS53G4K8l4p3T7-64">
          <mxGeometry width="50" height="50" relative="1" as="geometry">
            <mxPoint x="720" y="500" as="sourcePoint" />
            <mxPoint x="770" y="450" as="targetPoint" />
          </mxGeometry>
        </mxCell>
      </root>
    </mxGraphModel>
  </diagram>
  <diagram id="kV-3C7Lxbkk5yvDBKt5R" name="发布答案">
    <mxGraphModel dx="1038" dy="580" grid="1" gridSize="10" guides="1" tooltips="1" connect="1" arrows="1" fold="1" page="1" pageScale="1" pageWidth="827" pageHeight="1169" math="0" shadow="0">
      <root>
        <mxCell id="bY9RVUSAZ-zeMiD9EuE_-0" />
        <mxCell id="bY9RVUSAZ-zeMiD9EuE_-1" parent="bY9RVUSAZ-zeMiD9EuE_-0" />
        <mxCell id="ZINreE2bnWnwLLell3XS-5" value="" style="edgeStyle=orthogonalEdgeStyle;rounded=0;orthogonalLoop=1;jettySize=auto;html=1;dashed=1;endArrow=none;endFill=0;" edge="1" parent="bY9RVUSAZ-zeMiD9EuE_-1" source="ZINreE2bnWnwLLell3XS-6">
          <mxGeometry relative="1" as="geometry">
            <mxPoint x="405" y="300" as="targetPoint" />
          </mxGeometry>
        </mxCell>
        <mxCell id="ZINreE2bnWnwLLell3XS-6" value="Actor" style="shape=umlActor;verticalLabelPosition=bottom;labelBackgroundColor=#ffffff;verticalAlign=top;html=1;" vertex="1" parent="bY9RVUSAZ-zeMiD9EuE_-1">
          <mxGeometry x="390" y="100" width="30" height="60" as="geometry" />
        </mxCell>
        <mxCell id="ZINreE2bnWnwLLell3XS-17" value="question_api" style="html=1;" vertex="1" parent="bY9RVUSAZ-zeMiD9EuE_-1">
          <mxGeometry x="533" y="130" width="80" height="30" as="geometry" />
        </mxCell>
        <mxCell id="ZINreE2bnWnwLLell3XS-18" value="" style="edgeStyle=orthogonalEdgeStyle;rounded=0;orthogonalLoop=1;jettySize=auto;html=1;dashed=1;endArrow=none;endFill=0;exitX=0.5;exitY=1;exitDx=0;exitDy=0;" edge="1" parent="bY9RVUSAZ-zeMiD9EuE_-1" source="ZINreE2bnWnwLLell3XS-17" target="ZINreE2bnWnwLLell3XS-19">
          <mxGeometry relative="1" as="geometry">
            <mxPoint x="587.5" y="160" as="sourcePoint" />
            <mxPoint x="573" y="220" as="targetPoint" />
            <Array as="points" />
          </mxGeometry>
        </mxCell>
        <mxCell id="ZINreE2bnWnwLLell3XS-19" value="" style="html=1;points=[];perimeter=orthogonalPerimeter;" vertex="1" parent="bY9RVUSAZ-zeMiD9EuE_-1">
          <mxGeometry x="568" y="320" width="10" height="80" as="geometry" />
        </mxCell>
        <mxCell id="ZINreE2bnWnwLLell3XS-20" value="" style="html=1;points=[];perimeter=orthogonalPerimeter;" vertex="1" parent="bY9RVUSAZ-zeMiD9EuE_-1">
          <mxGeometry x="400" y="320" width="10" height="80" as="geometry" />
        </mxCell>
        <mxCell id="ZINreE2bnWnwLLell3XS-21" value="" style="edgeStyle=orthogonalEdgeStyle;rounded=0;orthogonalLoop=1;jettySize=auto;html=1;dashed=1;endArrow=none;endFill=0;" edge="1" parent="bY9RVUSAZ-zeMiD9EuE_-1">
          <mxGeometry relative="1" as="geometry">
            <mxPoint x="405" y="300" as="sourcePoint" />
            <mxPoint x="405" y="300" as="targetPoint" />
            <Array as="points">
              <mxPoint x="404.5" y="320" />
              <mxPoint x="404.5" y="320" />
            </Array>
          </mxGeometry>
        </mxCell>
        <mxCell id="ZINreE2bnWnwLLell3XS-22" value="" style="endArrow=classic;html=1;" edge="1" parent="bY9RVUSAZ-zeMiD9EuE_-1" source="ZINreE2bnWnwLLell3XS-20">
          <mxGeometry width="50" height="50" relative="1" as="geometry">
            <mxPoint x="210" y="400" as="sourcePoint" />
            <mxPoint x="570" y="350" as="targetPoint" />
          </mxGeometry>
        </mxCell>
        <mxCell id="ZINreE2bnWnwLLell3XS-23" value="发布答案" style="text;html=1;align=center;verticalAlign=middle;resizable=0;points=[];labelBackgroundColor=#ffffff;" vertex="1" connectable="0" parent="ZINreE2bnWnwLLell3XS-22">
          <mxGeometry x="-0.2187" y="4" relative="1" as="geometry">
            <mxPoint as="offset" />
          </mxGeometry>
        </mxCell>
        <mxCell id="ZINreE2bnWnwLLell3XS-24" value="question服务" style="html=1;" vertex="1" parent="bY9RVUSAZ-zeMiD9EuE_-1">
          <mxGeometry x="650" y="130" width="80" height="30" as="geometry" />
        </mxCell>
        <mxCell id="ZINreE2bnWnwLLell3XS-25" value="" style="html=1;points=[];perimeter=orthogonalPerimeter;" vertex="1" parent="bY9RVUSAZ-zeMiD9EuE_-1">
          <mxGeometry x="568" y="320" width="10" height="80" as="geometry" />
        </mxCell>
        <mxCell id="ZINreE2bnWnwLLell3XS-26" value="" style="edgeStyle=orthogonalEdgeStyle;rounded=0;orthogonalLoop=1;jettySize=auto;html=1;dashed=1;endArrow=none;endFill=0;exitX=0.5;exitY=1;exitDx=0;exitDy=0;" edge="1" parent="bY9RVUSAZ-zeMiD9EuE_-1">
          <mxGeometry relative="1" as="geometry">
            <mxPoint x="572.5" y="160" as="sourcePoint" />
            <mxPoint x="572.5" y="320" as="targetPoint" />
            <Array as="points" />
          </mxGeometry>
        </mxCell>
        <mxCell id="ZINreE2bnWnwLLell3XS-27" value="" style="html=1;points=[];perimeter=orthogonalPerimeter;" vertex="1" parent="bY9RVUSAZ-zeMiD9EuE_-1">
          <mxGeometry x="685" y="320" width="10" height="80" as="geometry" />
        </mxCell>
        <mxCell id="ZINreE2bnWnwLLell3XS-28" value="" style="edgeStyle=orthogonalEdgeStyle;rounded=0;orthogonalLoop=1;jettySize=auto;html=1;dashed=1;endArrow=none;endFill=0;exitX=0.5;exitY=1;exitDx=0;exitDy=0;" edge="1" parent="bY9RVUSAZ-zeMiD9EuE_-1">
          <mxGeometry relative="1" as="geometry">
            <mxPoint x="689.5" y="160" as="sourcePoint" />
            <mxPoint x="689.5" y="320" as="targetPoint" />
            <Array as="points" />
          </mxGeometry>
        </mxCell>
        <mxCell id="ZINreE2bnWnwLLell3XS-29" value="" style="endArrow=classic;html=1;exitX=0.92;exitY=0.378;exitDx=0;exitDy=0;exitPerimeter=0;" edge="1" parent="bY9RVUSAZ-zeMiD9EuE_-1" source="ZINreE2bnWnwLLell3XS-25" target="ZINreE2bnWnwLLell3XS-27">
          <mxGeometry width="50" height="50" relative="1" as="geometry">
            <mxPoint x="600" y="370" as="sourcePoint" />
            <mxPoint x="670" y="380" as="targetPoint" />
          </mxGeometry>
        </mxCell>
        <mxCell id="ZINreE2bnWnwLLell3XS-30" value="发布答案&amp;nbsp;" style="text;html=1;align=center;verticalAlign=middle;resizable=0;points=[];labelBackgroundColor=#ffffff;" vertex="1" connectable="0" parent="ZINreE2bnWnwLLell3XS-29">
          <mxGeometry x="-0.2356" relative="1" as="geometry">
            <mxPoint as="offset" />
          </mxGeometry>
        </mxCell>
        <mxCell id="ZINreE2bnWnwLLell3XS-31" value="" style="endArrow=classic;html=1;" edge="1" parent="bY9RVUSAZ-zeMiD9EuE_-1" source="ZINreE2bnWnwLLell3XS-27">
          <mxGeometry width="50" height="50" relative="1" as="geometry">
            <mxPoint x="670" y="410" as="sourcePoint" />
            <mxPoint x="580" y="390" as="targetPoint" />
          </mxGeometry>
        </mxCell>
        <mxCell id="ZINreE2bnWnwLLell3XS-32" value="返回结果" style="text;html=1;align=center;verticalAlign=middle;resizable=0;points=[];labelBackgroundColor=#ffffff;" vertex="1" connectable="0" parent="ZINreE2bnWnwLLell3XS-31">
          <mxGeometry x="-0.1505" y="1" relative="1" as="geometry">
            <mxPoint as="offset" />
          </mxGeometry>
        </mxCell>
        <mxCell id="ZINreE2bnWnwLLell3XS-33" value="" style="endArrow=classic;html=1;exitX=-0.04;exitY=0.868;exitDx=0;exitDy=0;exitPerimeter=0;entryX=1.2;entryY=0.868;entryDx=0;entryDy=0;entryPerimeter=0;" edge="1" parent="bY9RVUSAZ-zeMiD9EuE_-1" source="ZINreE2bnWnwLLell3XS-25" target="ZINreE2bnWnwLLell3XS-20">
          <mxGeometry width="50" height="50" relative="1" as="geometry">
            <mxPoint x="560" y="390" as="sourcePoint" />
            <mxPoint x="360" y="410" as="targetPoint" />
          </mxGeometry>
        </mxCell>
        <mxCell id="ZINreE2bnWnwLLell3XS-34" value="返回answer_id" style="text;html=1;align=center;verticalAlign=middle;resizable=0;points=[];labelBackgroundColor=#ffffff;" vertex="1" connectable="0" parent="ZINreE2bnWnwLLell3XS-33">
          <mxGeometry x="0.2352" y="2" relative="1" as="geometry">
            <mxPoint as="offset" />
          </mxGeometry>
        </mxCell>
        <mxCell id="ZINreE2bnWnwLLell3XS-35" value="kafka" style="html=1;" vertex="1" parent="bY9RVUSAZ-zeMiD9EuE_-1">
          <mxGeometry x="760" y="130" width="50" height="30" as="geometry" />
        </mxCell>
        <mxCell id="ZINreE2bnWnwLLell3XS-36" value="ES" style="html=1;" vertex="1" parent="bY9RVUSAZ-zeMiD9EuE_-1">
          <mxGeometry x="840" y="130" width="50" height="30" as="geometry" />
        </mxCell>
        <mxCell id="ZINreE2bnWnwLLell3XS-37" value="" style="html=1;points=[];perimeter=orthogonalPerimeter;" vertex="1" parent="bY9RVUSAZ-zeMiD9EuE_-1">
          <mxGeometry x="685" y="320" width="10" height="80" as="geometry" />
        </mxCell>
        <mxCell id="ZINreE2bnWnwLLell3XS-38" value="" style="edgeStyle=orthogonalEdgeStyle;rounded=0;orthogonalLoop=1;jettySize=auto;html=1;dashed=1;endArrow=none;endFill=0;exitX=0.5;exitY=1;exitDx=0;exitDy=0;" edge="1" parent="bY9RVUSAZ-zeMiD9EuE_-1">
          <mxGeometry relative="1" as="geometry">
            <mxPoint x="784.5" y="160" as="sourcePoint" />
            <mxPoint x="784.5" y="320" as="targetPoint" />
            <Array as="points" />
          </mxGeometry>
        </mxCell>
        <mxCell id="ZINreE2bnWnwLLell3XS-39" value="" style="html=1;points=[];perimeter=orthogonalPerimeter;" vertex="1" parent="bY9RVUSAZ-zeMiD9EuE_-1">
          <mxGeometry x="780" y="320" width="10" height="80" as="geometry" />
        </mxCell>
        <mxCell id="ZINreE2bnWnwLLell3XS-40" value="" style="edgeStyle=orthogonalEdgeStyle;rounded=0;orthogonalLoop=1;jettySize=auto;html=1;dashed=1;endArrow=none;endFill=0;exitX=0.5;exitY=1;exitDx=0;exitDy=0;" edge="1" parent="bY9RVUSAZ-zeMiD9EuE_-1">
          <mxGeometry relative="1" as="geometry">
            <mxPoint x="864.5" y="160" as="sourcePoint" />
            <mxPoint x="864.5" y="320" as="targetPoint" />
            <Array as="points" />
          </mxGeometry>
        </mxCell>
        <mxCell id="ZINreE2bnWnwLLell3XS-41" value="" style="html=1;points=[];perimeter=orthogonalPerimeter;" vertex="1" parent="bY9RVUSAZ-zeMiD9EuE_-1">
          <mxGeometry x="860" y="320" width="10" height="80" as="geometry" />
        </mxCell>
        <mxCell id="ZINreE2bnWnwLLell3XS-42" value="" style="endArrow=classic;html=1;entryX=-0.04;entryY=0.358;entryDx=0;entryDy=0;entryPerimeter=0;" edge="1" parent="bY9RVUSAZ-zeMiD9EuE_-1" target="ZINreE2bnWnwLLell3XS-39">
          <mxGeometry width="50" height="50" relative="1" as="geometry">
            <mxPoint x="700" y="349" as="sourcePoint" />
            <mxPoint x="760" y="340" as="targetPoint" />
          </mxGeometry>
        </mxCell>
        <mxCell id="ZINreE2bnWnwLLell3XS-43" value="异步发送" style="text;html=1;align=center;verticalAlign=middle;resizable=0;points=[];labelBackgroundColor=#ffffff;" vertex="1" connectable="0" parent="ZINreE2bnWnwLLell3XS-42">
          <mxGeometry x="-0.3871" y="-1" relative="1" as="geometry">
            <mxPoint as="offset" />
          </mxGeometry>
        </mxCell>
        <mxCell id="ZINreE2bnWnwLLell3XS-44" value="插入" style="endArrow=classic;html=1;entryX=0.04;entryY=0.388;entryDx=0;entryDy=0;entryPerimeter=0;" edge="1" parent="bY9RVUSAZ-zeMiD9EuE_-1" target="ZINreE2bnWnwLLell3XS-41">
          <mxGeometry width="50" height="50" relative="1" as="geometry">
            <mxPoint x="790" y="350" as="sourcePoint" />
            <mxPoint x="840" y="300" as="targetPoint" />
          </mxGeometry>
        </mxCell>
        <mxCell id="ZINreE2bnWnwLLell3XS-45" value="返回" style="endArrow=classic;html=1;" edge="1" parent="bY9RVUSAZ-zeMiD9EuE_-1">
          <mxGeometry width="50" height="50" relative="1" as="geometry">
            <mxPoint x="860" y="380" as="sourcePoint" />
            <mxPoint x="790" y="380" as="targetPoint" />
          </mxGeometry>
        </mxCell>
        <mxCell id="ZINreE2bnWnwLLell3XS-46" value="返回" style="endArrow=classic;html=1;exitX=-0.2;exitY=0.798;exitDx=0;exitDy=0;exitPerimeter=0;entryX=0.9;entryY=0.778;entryDx=0;entryDy=0;entryPerimeter=0;" edge="1" parent="bY9RVUSAZ-zeMiD9EuE_-1" source="ZINreE2bnWnwLLell3XS-39" target="ZINreE2bnWnwLLell3XS-37">
          <mxGeometry width="50" height="50" relative="1" as="geometry">
            <mxPoint x="720" y="500" as="sourcePoint" />
            <mxPoint x="770" y="450" as="targetPoint" />
          </mxGeometry>
        </mxCell>
      </root>
    </mxGraphModel>
  </diagram>
</mxfile>
